<?xml version="1.0" encoding="utf-8"?>
<!-- Generator: Adobe Illustrator 23.0.1, SVG Export Plug-In . SVG Version: 6.00 Build 0)  -->
<svg version="1.1" id="Layer_1" xmlns="http://www.w3.org/2000/svg" x="0px" y="0px"
	 viewBox="0 0 300 300" style="enable-background:new 0 0 300 300;" xml:space="preserve">
<style type="text/css">
	.st0{fill:#FFFFFF;}
</style>
<g>
	<path class="st0" d="M143.22,158.01c0.12-0.32,0.4-0.34,0.64-0.37c0.56-0.06,1.11-0.11,1.67-0.11c2.44-0.01,4.88-0.01,7.32,0
		c0.13,0,0.26,0,0.39,0c1.55,0.08,3.09,0.21,4.64,0.25c1.62,0.04,3.24,0.02,4.86,0c0.43,0,0.86-0.04,1.29-0.11
		c0.47-0.07,0.87-0.29,1.08-0.74c0.19-0.41,0.37-0.83,0.52-1.25c0.42-1.16,1.05-2.18,1.99-2.98c0.56-0.48,1.2-0.79,1.95-0.75
		c1.05,0.06,2.1,0.21,3.15,0.26c1.25,0.06,2.5,0.06,3.75,0.06c0.3,0,0.6-0.07,0.89-0.16c0.49-0.15,0.86-0.49,0.9-1
		c0.05-0.7,0.04-1.42-0.04-2.12c-0.07-0.58-0.47-0.96-1.07-1.07c-0.27-0.05-0.55-0.1-0.83-0.09c-0.77,0.01-1.55,0.08-2.32,0.08
		c-4.29,0.04-8.59,0.06-12.88,0.14c-7.13,0.13-14.26,0.04-21.38,0.05c-0.62,0-1.25,0.04-1.87,0.09c-0.62,0.05-0.92,0.29-0.97,0.92
		c-0.04,0.44,0.01,0.91,0.16,1.33c0.43,1.23,0.69,2.49,0.86,3.77c0.12,0.85,0.14,1.71,0.16,2.57c0.01,0.64-0.08,1.29-0.09,1.93
		c-0.01,1,0.42,1.47,1.42,1.53c0.77,0.05,1.55,0.06,2.32,0.09c0.82,0.03,1.64,0.04,2.46,0.08c0.86,0.05,1.72,0.17,2.57,0.18
		c2.46,0.04,4.92-0.08,7.36,0.27c0.57,0.08,1.16,0.09,1.74,0.11c0.73,0.03,1.47,0.11,2.19,0.03c0.98-0.11,1.93-0.02,2.9,0.08
		c1.22,0.12,2.44,0.24,3.66,0.3c1.1,0.05,2.2,0,3.3,0.01c0.71,0.01,1.42,0.05,2.13,0.09c1.24,0.08,2.49,0.17,3.73,0.25
		c0.64,0.04,1.29,0.05,1.94,0.1c1.31,0.11,2.61,0.23,3.92,0.35c0.64,0.06,1.29,0.13,1.93,0.14c1.51,0.02,3.02,0.15,4.51-0.23
		c0.71-0.18,1.42-0.35,2.14-0.48c0.97-0.18,1.84,0.02,2.54,0.78c0.77,0.83,1.73,1.27,2.85,1.37c0.98,0.09,1.9,0.34,2.77,0.82
		c0.38,0.21,0.85,0.31,1.28,0.4c0.65,0.14,1.32,0.19,1.97,0.35c1.84,0.44,3.68,0.91,5.52,1.38c2.15,0.55,4.3,1.09,6.45,1.65
		c1.33,0.35,2.66,0.75,3.99,1.1c2.25,0.59,4.51,1.14,6.77,1.72c0.97,0.25,1.94,0.48,2.93,0.27c0.68-0.14,1.28,0.04,1.89,0.28
		c0.75,0.3,1.44,0.67,2.06,1.2c0.31,0.26,0.63,0.55,1.07,0.55c0.88-0.02,1.76,0.09,2.63-0.21c1.16-0.39,2.16-0.02,3.01,0.82
		c0.34,0.33,0.64,0.7,0.97,1.04c1.29,1.36,2.79,1.59,4.48,0.85c0.63-0.28,1.27-0.56,1.92-0.77c0.49-0.15,1.01-0.23,1.51-0.26
		c0.56-0.04,1.12,0.01,1.68,0.01c1.2,0.01,2.35,0.18,3.43,0.78c0.48,0.27,1.04,0.45,1.59,0.52c1.43,0.18,2.73-0.27,3.9-1.08
		c0.51-0.35,0.93-0.78,1.16-1.36c0.3-0.77,0.88-1.2,1.62-1.47c0.24-0.09,0.49-0.18,0.73-0.27c0.44-0.16,0.81-0.43,1.04-0.83
		c0.25-0.45,0.53-0.91,0.64-1.4c0.24-1.02,0.85-1.61,1.83-1.89c0.19-0.05,0.37-0.13,0.55-0.2c1.06-0.39,1.94-0.99,2.61-1.93
		c0.49-0.69,1.18-1.21,1.93-1.6c0.69-0.36,1.4-0.67,2.1-1.01c0.47-0.23,0.88-0.53,1.18-0.98c0.62-0.89,0.7-1.9,0.57-2.91
		c-0.14-1.04-0.39-2.07-0.64-3.09c-0.31-1.26,0.12-2.72,1.71-3.25c0.33-0.11,0.65-0.24,0.97-0.36c1.18-0.43,2.36-0.8,3.66-0.7
		c0.69,0.06,1.35-0.18,1.81-0.71c0.59-0.68,0.96-1.49,0.95-2.42c-0.01-1.08-0.02-2.16-0.1-3.23c-0.05-0.8-0.24-1.59-0.66-2.28
		c-0.16-0.26-0.44-0.55-0.71-0.6c-0.83-0.14-1.65-0.1-2.2,0.71c-0.1,0.14-0.22,0.27-0.31,0.42c-0.92,1.48-2.13,2.71-3.34,3.94
		c-0.89,0.91-1.87,1.22-3.1,0.65c-0.97-0.45-2.01-0.62-3.08-0.6c-1.5,0.03-2.74,0.52-3.55,1.85c-0.35,0.57-0.89,0.86-1.54,0.96
		c-0.23,0.04-0.47,0.07-0.71,0.08c-1.2,0.07-2.41,0.15-3.61,0.19c-1.9,0.07-3.79,0.14-5.69,0.14c-0.83,0-1.69-0.04-2.43-0.52
		c-0.38-0.25-0.76-0.5-1.09-0.81c-1.19-1.13-3.39-1.13-4.62-0.2c-0.51,0.39-1.07,0.73-1.62,1.06c-1,0.6-1.6,0.53-2.44-0.27
		c-0.44-0.42-0.85-0.86-1.29-1.28c-0.72-0.7-1.7-0.72-2.43-0.05c-0.4,0.37-0.84,0.7-1.37,0.82c-0.9,0.2-1.8,0.15-2.68-0.12
		c-0.52-0.16-0.83-0.53-0.95-1.06c-0.04-0.19-0.09-0.38-0.09-0.57c0.01-1.42,0.38-1.98,1.69-2.14c1.34-0.17,2.64-0.15,3.9,0.53
		c0.73,0.39,1.55,0.3,2.21-0.35c0.21-0.21,0.46-0.39,0.72-0.54c1.15-0.65,2.29-0.83,3.45,0c0.7,0.5,1.43,0.96,2.17,1.42
		c1.32,0.81,2.65,0.79,3.96-0.03c0.31-0.19,0.64-0.36,0.95-0.56c0.63-0.41,1.26-0.82,1.87-1.26c0.46-0.33,0.93-0.63,1.51-0.69
		c0.45-0.05,0.9-0.09,1.35-0.1c1.38-0.04,2.76-0.05,4.14-0.09c1.23-0.04,2.45-0.1,3.68-0.17c0.73-0.04,1.42,0.04,2.02,0.5
		c0.22,0.17,0.47,0.31,0.71,0.44c0.86,0.44,1.77,0.65,2.75,0.5c1.38-0.21,2.58-0.79,3.7-1.6c0.72-0.53,1.24-1.18,1.46-2.07
		c0.21-0.85,0.77-1.36,1.58-1.65c0.64-0.23,1.29-0.31,1.97-0.32c1.71-0.02,2.78-1.1,2.82-2.8c0.01-0.47,0.02-0.95,0-1.43
		c-0.07-1.31-0.58-2.46-1.28-3.55c-0.6-0.95-2.4-1.12-2.95,0.25c-0.06,0.14-0.12,0.28-0.18,0.42c-0.31,0.69-0.59,1.4-0.95,2.06
		c-0.61,1.1-1.44,1.44-2.64,1.06c-1.12-0.36-2.26-0.56-3.44-0.46c-1.09,0.09-2.13,0.31-2.99,1.07c-0.47,0.42-0.74,0.95-0.95,1.52
		c-0.25,0.7-0.72,1.11-1.47,1.17c-0.81,0.07-1.63,0.18-2.44,0.18c-2.18,0-4.35,0.03-6.52,0.26c-0.89,0.1-1.77-0.03-2.57-0.49
		c-0.67-0.39-1.38-0.74-1.97-1.23c-1.1-0.91-3.42-0.87-4.47,0.09c-0.3,0.28-0.64,0.52-0.99,0.73c-1.36,0.82-1.8,0.87-3.11-0.05
		c-0.63-0.44-1.35-0.77-2.03-1.14c-0.11-0.06-0.25-0.07-0.37-0.09c-0.75-0.1-1.35,0.13-1.83,0.73c-0.62,0.78-1.48,1-2.43,0.93
		c-0.61-0.05-1.17-0.27-1.69-0.59c-0.55-0.35-1.14-0.65-1.8-0.64c-3.32,0.03-6.65,0.07-9.97,0.11c-0.04,0-0.09,0.01-0.13,0.01
		c-1.9,0.02-3.8,0.05-5.7,0.07c-0.27,0-0.52-0.06-0.62-0.36c0.18-0.49,0.62-0.7,1.01-0.96c2.38-1.57,4.77-3.12,7.14-4.69
		c0.62-0.41,1.23-0.5,1.96-0.29c1.52,0.44,3.01,0.4,4.47-0.31c0.42-0.2,0.9-0.31,1.36-0.38c0.66-0.09,1.33-0.12,2-0.14
		c0.97-0.03,1.95-0.1,2.91-0.02c1.16,0.1,2.29,0.08,3.35-0.42c0.8-0.37,1.53-0.31,2.26,0.16c0.9,0.56,1.82,1.08,2.73,1.61
		c1.45,0.85,2.91,1.69,4.35,2.56c0.68,0.41,1.42,0.48,2.18,0.43c0.51-0.04,0.91-0.38,0.95-0.81c0.08-0.86,0.01-1.67-0.64-2.35
		c-0.7-0.73-1.33-1.53-2.02-2.27c-1.25-1.34-2.52-2.66-3.81-3.97c-0.5-0.51-1.14-0.74-1.87-0.75c-0.7-0.02-1.38,0.06-2.03,0.33
		c-0.69,0.29-1.38,0.25-2.08,0.03c-0.43-0.14-0.88-0.26-1.32-0.27c-1.47-0.05-2.94-0.12-4.4-0.06c-1.39,0.05-2.58-0.25-3.63-1.2
		c-0.67-0.61-1.52-0.9-2.45-0.84c-0.24,0.01-0.48,0.01-0.71,0c-1.36-0.04-2.41,0.55-3.26,1.56c-0.22,0.26-0.45,0.52-0.66,0.8
		c-0.66,0.89-1.59,1.24-2.65,1.23c-0.86-0.01-1.62,0.24-2.32,0.68c-2.45,1.54-4.9,3.07-7.33,4.63c-0.82,0.53-1.67,0.9-2.66,0.81
		c-0.56-0.05-1.07,0.14-1.52,0.46c-0.32,0.22-0.62,0.47-0.9,0.73c-0.71,0.67-0.87,0.68-1.59-0.01c-0.09-0.09-0.17-0.2-0.28-0.27
		c-0.16-0.1-0.33-0.25-0.51-0.26c-0.53-0.03-1.07-0.11-1.59,0.13c-0.71,0.33-1.48,0.45-2.26,0.46c-1.08,0.01-2.16,0.04-3.23,0.07
		c-0.57,0.01-1.11,0.15-1.6,0.45c-0.35,0.21-0.69,0.45-1.03,0.68c-0.42,0.28-0.87,0.37-1.35,0.17c-0.22-0.09-0.45-0.17-0.65-0.28
		c-0.64-0.34-1.33-0.49-2.05-0.49c-3.84,0.03-7.68,0.07-11.52,0.09c-4.68,0.02-9.36,0.05-14.05,0.14
		c-6.07,0.12-12.14,0.03-18.21,0.03c-0.19,0-0.39,0.01-0.58,0.02c-0.99,0.02-1.98,0.1-2.97,0.05c-0.78-0.04-1.31-0.38-1.47-1.28
		c-0.04-0.25-0.09-0.51-0.16-0.76c-0.14-0.49-0.49-0.71-1.03-0.69c-0.55,0.02-0.79,0.2-0.92,0.73c-0.05,0.21-0.06,0.43-0.06,0.64
		c-0.01,0.93-0.01,1.86,0,2.79c0.01,1.25,0.04,2.5,0.06,3.75c0,0.04-0.06,0.08-0.17,0.21c-0.02-0.31-0.04-0.52-0.05-0.73
		c-0.04-1.81-0.07-3.62-0.1-5.43c0-0.11,0-0.22-0.02-0.32c-0.06-0.27-0.24-0.41-0.5-0.42c-0.28-0.01-0.52,0.06-0.6,0.37
		c-0.04,0.17-0.08,0.34-0.08,0.51c0.01,1.81,0.03,3.63,0.04,5.44c0,0.3,0.02,0.62-0.21,0.89c-0.07-0.23-0.09-0.45-0.1-0.67
		c-0.03-2.11-0.06-4.23-0.1-6.34c0-0.13,0-0.26-0.02-0.39c-0.14-0.75-0.42-0.99-1.19-0.97c-0.6,0.01-1.2,0.08-1.81,0.08
		c-2.33,0.03-4.66,0.07-6.99,0.08c-5.35,0.02-10.71-0.06-16.05,0.19c-0.32,0.02-0.65,0.05-0.96,0.13c-0.47,0.12-0.74,0.47-0.7,0.95
		c0.03,0.36,0.08,0.74,0.25,1.06c0.67,1.28,1.35,2.56,2.1,3.79c1.67,2.75,4.06,4.65,7.02,5.88c2.38,0.99,4.83,1.74,7.33,2.33
		c0.44,0.1,0.89,0.15,1.34,0.19c0.72,0.07,1.3-0.16,1.68-0.83c0.3-0.53,0.77-0.87,1.4-0.92c0.28-0.02,0.55-0.08,0.83-0.08
		c2.7-0.03,5.4-0.05,8.09-0.09c4.51-0.06,9.02,0.07,13.53-0.15c3.58-0.18,7.16-0.09,10.75-0.11c4.58-0.03,9.15-0.05,13.73-0.09
		c3.95-0.03,7.9-0.06,11.85-0.11c0.71-0.01,1.42-0.1,2.12-0.2c0.78-0.12,1.49,0.03,2.02,0.59c0.83,0.88,1.84,1.32,3.03,1.39
		c0.3,0.02,0.61,0.06,0.89,0.17c0.54,0.21,1.07,0.45,1.58,0.72c0.3,0.16,0.52,0.44,0.53,0.82c-0.4,0.41-0.9,0.43-1.39,0.46
		c-0.67,0.03-1.34,0.04-2,0.08c-1.15,0.08-2.09-0.16-2.57-1.37c-0.2-0.51-0.68-0.76-1.23-0.82c-0.26-0.03-0.52-0.07-0.77-0.07
		c-1.68,0.02-3.37,0.04-5.05,0.07c-0.23,0-0.47,0.04-0.7,0.1c-0.64,0.15-1.04,0.61-1.1,1.27c-0.05,0.54-0.08,1.08-0.08,1.61
		c0.02,2.48,0.04,4.96,0.08,7.45c0.01,0.83,0.01,1.67,0.69,2.41c-0.25,0.01-0.39,0.03-0.54,0.03c-0.99,0.02-1.98,0.04-2.97,0.07
		c-1.72,0.06-3.44,0.17-5.17,0.18c-1.66,0-3.31-0.11-4.97-0.16c-0.97-0.03-1.95,0.07-2.91-0.04c-1.63-0.18-3.26-0.26-4.9-0.24
		c-0.88,0.01-1.77-0.03-2.65-0.07c-0.66-0.04-1.33-0.17-1.99-0.18c-2.78-0.04-5.56,0.06-8.34-0.25c-1.39-0.16-2.8-0.11-4.2-0.19
		C143.99,158.37,143.53,158.38,143.22,158.01z M98.07,155.04c-0.01,0-0.03,0-0.04,0c0.04,2.8,0.08,5.61,0.13,8.41
		c0.02,1.08,0.48,1.75,1.55,1.87c0.23,0.03,0.47,0.07,0.7,0.07c1.4-0.02,2.8-0.01,4.2-0.11c1.91-0.14,3.82-0.28,5.71-0.57
		c3-0.46,5.98-1.06,8.98-1.56c1.81-0.3,3.61-0.6,5.45-0.65c0.62-0.02,1.24-0.1,1.86-0.15c1.14-0.1,2.27-0.24,3.41-0.29
		c1.72-0.08,3.45-0.1,5.17-0.16c1.04-0.04,1.63-0.56,1.79-1.6c0.08-0.55,0.11-1.11,0.18-1.67c0.3-2.16,0.19-4.3-0.2-6.44
		c-0.13-0.69-0.33-1.39-0.59-2.04c-0.34-0.87-1.02-1.28-1.97-1.31c-0.86-0.03-1.72-0.08-2.58-0.17c-2.9-0.32-5.77-0.77-8.59-1.52
		c-2.57-0.68-5.12-1.38-7.55-2.5c-2.46-1.14-4.55-2.76-6.07-5.01c-0.99-1.46-1.78-3.06-2.7-4.57c-0.74-1.22-1.48-2.44-2.31-3.59
		c-1.16-1.6-2.67-2.82-4.48-3.63c-0.37-0.16-0.77-0.29-1.17-0.32c-0.73-0.06-1.08,0.24-1.17,0.98c-0.05,0.4-0.06,0.82-0.06,1.23
		c0.04,3.15,0.12,6.3,0.12,9.45c0,3.32,0.07,6.64,0.17,9.96C98.12,151.11,98.07,153.07,98.07,155.04z M59.32,156.37
		c0-0.02,0-0.05,0-0.07c0.24,0,0.47,0,0.71,0c3.48,0,6.96,0,10.43,0c0.3,0,0.6,0.03,0.9,0.09c0.58,0.11,1,0.44,1.13,1.02
		c0.11,0.48,0.18,0.97,0.2,1.46c0.05,1.51,0.04,3.02,0.09,4.53c0.04,1.18,0.53,1.69,1.7,1.79c0.73,0.06,1.47,0.07,2.19,0.01
		c1.07-0.09,1.53-0.63,1.52-1.7c-0.04-4.66,0.05-9.33-0.12-13.99c-0.14-3.9-0.09-7.82-0.11-11.72c-0.01-2.57-0.01-5.14-0.02-7.71
		c0-0.43,0.01-0.87-0.02-1.3c-0.06-0.9-0.47-1.43-1.37-1.52c-0.94-0.09-1.9-0.09-2.84-0.01c-0.84,0.07-1.21,0.54-1.29,1.36
		c-0.04,0.39-0.05,0.78-0.05,1.16c0.01,3.54,0.03,7.08,0.05,10.63c0,0.41,0,0.82,0.01,1.23c0.02,2.4,0.07,4.79,0.06,7.19
		c0,1.17-0.52,1.7-1.69,1.78c-1.08,0.07-2.16,0.07-3.24,0.08c-0.52,0-1.04-0.01-1.55-0.08c-0.81-0.1-1.17-0.46-1.3-1.28
		c-0.06-0.36-0.06-0.73-0.09-1.09c-0.02-0.34-0.02-0.69-0.08-1.03c-0.12-0.69-0.35-0.89-1.04-0.87c-0.32,0.01-0.65,0.05-0.94,0.17
		c-2.72,1.17-5.57,1.82-8.52,2.02c-1.44,0.1-2.89,0.13-4.34,0.14c-1.06,0.01-2.11-0.06-3.17-0.11c-0.5-0.02-0.99-0.03-1.49-0.09
		c-2.87-0.34-5.65-1.01-8.25-2.3c-0.69-0.34-1.42-0.48-2.19-0.47c-3.2,0.02-6.39,0.02-9.59,0.03c-0.52,0-1.04,0.03-1.55,0.08
		c-0.78,0.07-1.3,0.49-1.34,1.25c-0.07,1.14-0.06,2.28-0.01,3.42c0.03,0.62,0.37,1.15,0.87,1.53c0.46,0.36,0.92,0.71,1.4,1.04
		c1.37,0.94,2.74,1.88,4.13,2.79c0.64,0.42,1.34,0.71,2.11,0.77c0.56,0.04,1.12,0.08,1.68,0.07c1.36-0.03,2.72-0.12,4.08-0.13
		c4.23-0.03,8.46,0,12.68-0.17c3.06-0.12,6.13-0.02,9.2-0.02C58.63,156.37,58.98,156.37,59.32,156.37z M64.57,136.59
		c0.02,0,0.03,0,0.05,0c-0.05-1.68-0.09-3.36-0.15-5.04c-0.03-0.93-0.43-1.7-1.07-2.35c-1.15-1.18-2.62-1.79-4.15-2.28
		c-1.61-0.51-3.26-0.77-4.93-0.96c-1.07-0.12-2.14-0.22-3.21-0.27c-1.14-0.05-2.28-0.01-3.41,0.18c-1.55,0.27-3.12,0.29-4.66,0.67
		c-1.75,0.43-3.45,0.97-4.99,1.92c-1.37,0.84-2.22,2.02-2.1,3.73c0.03,0.49,0,0.99,0.01,1.49c0.03,2.59,0.05,5.18,0.11,7.76
		c0.01,0.46,0.15,0.94,0.33,1.37c0.33,0.81,0.99,1.34,1.71,1.8c1.1,0.71,2.3,1.18,3.55,1.53c1.52,0.42,3.04,0.77,4.63,0.81
		c0.58,0.01,1.15,0.1,1.73,0.17c1.26,0.14,2.52,0.31,3.79,0.03c0.33-0.07,0.68-0.09,1.02-0.12c0.96-0.09,1.94-0.1,2.89-0.28
		c2.01-0.38,4.03-0.76,5.84-1.79c0.7-0.4,1.38-0.8,1.93-1.39c0.78-0.83,1.09-1.84,1.09-2.95C64.57,139.26,64.57,137.93,64.57,136.59
		z M87.23,159.29c0,1.14,0,2.29,0,3.43c0,0.22,0.02,0.43,0.03,0.65c0.07,1.38,0.77,1.68,1.99,1.77c0.04,0,0.09,0,0.13,0
		c1.9,0,3.8,0.01,5.7-0.01c0.36,0,0.73-0.06,1.08-0.15c0.5-0.12,0.84-0.45,0.96-0.95c0.08-0.35,0.14-0.72,0.14-1.08
		c-0.01-2.09-0.05-4.19-0.07-6.28c-0.03-3.65-0.06-7.3-0.09-10.94c-0.04-5.2-0.07-10.4-0.1-15.61c0-0.32,0.02-0.65,0-0.97
		c-0.11-1.62-0.33-2.15-2.18-2.15c-2.07,0-4.14,0.04-6.21,0.07c-1,0.02-1.56,0.55-1.64,1.54c-0.01,0.15-0.01,0.3,0,0.45
		c0.02,1.53,0.06,3.06,0.07,4.59c0.04,4.01,0.07,8.03,0.09,12.04c0.01,1.2-0.01,2.41,0,3.61c0.02,2.07,0.07,4.14,0.09,6.21
		C87.24,156.78,87.23,158.03,87.23,159.29z M44.42,157.78C44.42,157.78,44.42,157.78,44.42,157.78c-0.82,0-1.64-0.01-2.46,0
		c-1.42,0.02-2.85,0.04-4.27,0.11c-0.86,0.04-1.23,0.41-1.39,1.26c-0.05,0.29-0.09,0.6-0.09,0.9c-0.01,0.89,0,1.77-0.01,2.66
		c-0.01,1.51,0.55,2.69,1.86,3.54c1.81,1.17,3.81,1.82,5.91,2.19c1.37,0.25,2.76,0.49,4.16,0.48c1.83-0.01,3.67,0.09,5.49-0.05
		c1.77-0.14,3.54-0.48,5.25-1.02c1.45-0.46,2.86-0.96,4.09-1.9c0.81-0.62,1.55-1.33,1.64-2.38c0.12-1.41,0.09-2.84,0.11-4.26
		c0-0.21-0.07-0.43-0.14-0.63c-0.15-0.43-0.43-0.76-0.87-0.89c-0.31-0.09-0.63-0.15-0.95-0.15c-0.69,0-1.38,0.06-2.07,0.06
		c-3.67,0.03-7.34,0.07-11.01,0.09C47.92,157.79,46.17,157.78,44.42,157.78z M82.3,145.01c-0.04,0-0.08,0-0.13,0
		c0-1.12,0-2.25,0-3.37c0.01-2.33,0.04-4.67,0.02-7c-0.01-1.9-0.08-3.8-0.13-5.7c-0.01-0.19-0.04-0.38-0.09-0.57
		c-0.19-0.77-0.57-1.04-1.4-1.03c-0.73,0.01-1.09,0.3-1.26,1.05c-0.05,0.21-0.07,0.43-0.06,0.64c0.02,0.82,0.08,1.64,0.09,2.46
		c0.04,3.43,0.06,6.86,0.09,10.3c0.03,3.86,0.06,7.73,0.08,11.59c0.01,2.96,0,5.92,0.01,8.88c0,0.52,0.04,1.03,0.1,1.55
		c0.09,0.78,0.59,1.23,1.32,1.24c0.76,0.01,1.29-0.45,1.38-1.26c0.06-0.51,0.09-1.03,0.09-1.55c-0.01-1.64-0.06-3.28-0.08-4.92
		c-0.02-1.36-0.03-2.72-0.03-4.08C82.3,150.49,82.3,147.75,82.3,145.01z M86.18,142.31c-0.03,0-0.06,0-0.09,0c0-0.26,0-0.52,0-0.78
		c0-3.52,0.01-7.04,0-10.56c0-0.75-0.06-1.51-0.1-2.26c-0.01-0.19-0.06-0.39-0.11-0.57c-0.19-0.61-0.66-0.96-1.24-0.95
		c-0.57,0.01-1.07,0.38-1.22,0.99c-0.09,0.35-0.13,0.72-0.13,1.09c0.02,2.24,0.07,4.49,0.08,6.73c0.04,5.87,0.06,11.75,0.1,17.62
		c0.02,3.07,0.04,6.13,0.08,9.2c0,0.39,0.05,0.78,0.13,1.16c0.14,0.66,0.65,1.06,1.3,1.05c0.68-0.01,1.18-0.45,1.28-1.14
		c0.04-0.3,0.06-0.6,0.06-0.9c-0.04-6.02-0.09-12.05-0.13-18.07C86.17,144.04,86.18,143.17,86.18,142.31z M71.3,141.53
		c0-1.16,0.01-2.33,0-3.49c-0.02-1.23-0.06-2.45-0.09-3.68c-0.01-0.31-0.09-0.63-0.39-0.76c-0.34-0.15-0.68-0.06-0.95,0.21
		c-0.17,0.17-0.36,0.32-0.5,0.51c-0.52,0.7-1.17,1.27-1.88,1.76c-0.9,0.62-1.29,1.44-1.26,2.53c0.05,1.77,0.06,3.53,0.08,5.3
		c0.01,0.93-0.01,1.85,0.01,2.78c0.01,0.47,0.05,0.94,0.12,1.41c0.1,0.67,0.5,1.13,1.18,1.18c0.81,0.07,1.63,0.06,2.44-0.01
		c0.58-0.05,0.97-0.46,1.13-1.02c0.08-0.28,0.11-0.59,0.11-0.89C71.31,145.41,71.3,143.47,71.3,141.53z M35.32,160.68
		c0.01,0,0.02,0,0.04,0c-0.04-0.49-0.05-0.99-0.12-1.48c-0.12-0.82-0.62-1.27-1.42-1.32c-0.88-0.05-1.76-0.12-2.64-0.09
		c-1.43,0.05-2.65-0.46-3.79-1.25c-1.45-1.01-2.91-2.01-4.39-2.97c-0.63-0.41-1.3-0.77-2.11-0.7c-0.5,0.04-0.92,0.22-1.16,0.69
		c-0.33,0.65-0.19,1.8,0.35,2.29c0.41,0.37,0.88,0.7,1.36,0.96c1.46,0.79,2.98,1.46,4.4,2.32c2.05,1.24,4.15,2.37,6.35,3.33
		c0.57,0.25,1.14,0.5,1.79,0.5c0.91,0,1.27-0.28,1.34-1.19C35.34,161.42,35.32,161.05,35.32,160.68z M174.64,157.52
		c0-0.03,0-0.06,0-0.09c0.52,0,1.04,0,1.55,0c0.17,0,0.35,0,0.52-0.03c0.84-0.13,1.26-0.48,1.37-1.31c0.08-0.63,0.08-1.3,0-1.93
		c-0.11-0.81-0.6-1.2-1.4-1.27c-0.43-0.04-0.86-0.05-1.29-0.07c-1.33-0.06-2.67-0.14-4-0.18c-0.75-0.02-1.52-0.07-2.26,0.03
		c-1.5,0.21-3,2.14-2.95,3.66c0.02,0.57,0.3,0.95,0.86,1.07c0.4,0.08,0.81,0.13,1.22,0.13C170.37,157.52,172.5,157.52,174.64,157.52
		z M71.38,160.75C71.38,160.75,71.37,160.75,71.38,160.75c-0.01-0.56,0-1.12-0.01-1.68c0-0.11-0.04-0.21-0.07-0.32
		c-0.19-0.74-0.61-1.11-1.37-1.13c-0.67-0.02-1.34-0.02-2.01,0c-0.82,0.03-1.36,0.51-1.41,1.32c-0.05,0.81-0.05,1.64-0.01,2.45
		c0.05,0.84,0.46,1.27,1.29,1.47c0.69,0.16,1.39,0.31,2.08,0.45c1,0.21,1.46-0.17,1.49-1.21C71.39,161.66,71.38,161.2,71.38,160.75z
		 M180.12,149.89c-0.02,0-0.03,0-0.05,0c0-0.37,0.01-0.73,0-1.1c-0.01-0.19-0.05-0.38-0.09-0.57c-0.07-0.31-0.29-0.42-0.58-0.4
		c-0.27,0.01-0.44,0.17-0.48,0.44c-0.04,0.28-0.08,0.56-0.08,0.83c0.02,2.61,0.05,5.21,0.07,7.82c0,0.04,0,0.09,0,0.13
		c0.03,0.21,0.05,0.43,0.1,0.64c0.09,0.36,0.24,0.47,0.58,0.46c0.3-0.01,0.5-0.14,0.54-0.44c0.04-0.3,0.08-0.6,0.08-0.9
		C180.2,154.5,180.16,152.19,180.12,149.89z M182,155.47c0.01,0,0.02,0,0.03,0c-0.04-0.97-0.09-1.93-0.12-2.9
		c-0.04-1.29-0.06-2.58-0.09-3.87c0-0.09-0.01-0.17-0.02-0.26c-0.05-0.3-0.21-0.45-0.53-0.45c-0.3,0-0.58,0.03-0.65,0.38
		c-0.06,0.29-0.11,0.59-0.1,0.89c0.05,2.54,0.12,5.07,0.18,7.61c0.02,0.63,0.17,0.87,0.59,0.9c0.43,0.03,0.67-0.26,0.71-0.88
		c0.01-0.11,0-0.22,0-0.32C182,156.2,182,155.83,182,155.47z"/>
	<path d="M143.22,158.01c0.31,0.37,0.77,0.36,1.18,0.39c1.4,0.08,2.81,0.04,4.2,0.19c2.78,0.31,5.56,0.21,8.34,0.25
		c0.66,0.01,1.32,0.14,1.99,0.18c0.88,0.05,1.77,0.08,2.65,0.07c1.64-0.01,3.27,0.06,4.9,0.24c0.96,0.1,1.94,0.01,2.91,0.04
		c1.66,0.05,3.32,0.16,4.97,0.16c1.72,0,3.44-0.12,5.17-0.18c0.99-0.03,1.98-0.05,2.97-0.07c0.14,0,0.29-0.02,0.54-0.03
		c-0.68-0.73-0.67-1.58-0.69-2.41c-0.04-2.48-0.06-4.96-0.08-7.45c0-0.54,0.03-1.08,0.08-1.61c0.06-0.66,0.46-1.12,1.1-1.27
		c0.23-0.05,0.47-0.09,0.7-0.1c1.68-0.03,3.37-0.06,5.05-0.07c0.26,0,0.52,0.04,0.77,0.07c0.55,0.06,1.03,0.31,1.23,0.82
		c0.48,1.21,1.42,1.45,2.57,1.37c0.67-0.04,1.34-0.05,2-0.08c0.49-0.03,0.99-0.04,1.39-0.46c-0.01-0.38-0.23-0.66-0.53-0.82
		c-0.51-0.27-1.04-0.51-1.58-0.72c-0.28-0.11-0.59-0.15-0.89-0.17c-1.19-0.07-2.2-0.51-3.03-1.39c-0.53-0.57-1.24-0.71-2.02-0.59
		c-0.7,0.1-1.41,0.19-2.12,0.2c-3.95,0.05-7.9,0.08-11.85,0.11c-4.58,0.03-9.15,0.05-13.73,0.09c-3.58,0.02-7.17-0.07-10.75,0.11
		c-4.51,0.22-9.02,0.09-13.53,0.15c-2.7,0.04-5.4,0.05-8.09,0.09c-0.28,0-0.55,0.06-0.83,0.08c-0.64,0.05-1.1,0.39-1.4,0.92
		c-0.38,0.68-0.96,0.9-1.68,0.83c-0.45-0.04-0.9-0.09-1.34-0.19c-2.5-0.59-4.95-1.34-7.33-2.33c-2.96-1.23-5.35-3.14-7.02-5.88
		c-0.75-1.23-1.43-2.51-2.1-3.79c-0.16-0.31-0.22-0.7-0.25-1.06c-0.04-0.48,0.23-0.83,0.7-0.95c0.31-0.08,0.64-0.11,0.96-0.13
		c5.35-0.25,10.7-0.18,16.05-0.19c2.33-0.01,4.66-0.04,6.99-0.08c0.6-0.01,1.2-0.07,1.81-0.08c0.77-0.01,1.05,0.23,1.19,0.97
		c0.02,0.13,0.02,0.26,0.02,0.39c0.03,2.11,0.06,4.23,0.1,6.34c0,0.22,0.02,0.45,0.1,0.67c0.23-0.27,0.21-0.59,0.21-0.89
		c-0.01-1.81-0.03-3.63-0.04-5.44c0-0.17,0.04-0.34,0.08-0.51c0.08-0.31,0.32-0.38,0.6-0.37c0.27,0.01,0.45,0.15,0.5,0.42
		c0.02,0.1,0.02,0.21,0.02,0.32c0.03,1.81,0.07,3.62,0.1,5.43c0,0.21,0.03,0.42,0.05,0.73c0.11-0.13,0.17-0.17,0.17-0.21
		c-0.02-1.25-0.04-2.5-0.06-3.75c-0.01-0.93,0-1.86,0-2.79c0-0.21,0.01-0.43,0.06-0.64c0.13-0.53,0.37-0.71,0.92-0.73
		c0.54-0.02,0.89,0.2,1.03,0.69c0.07,0.25,0.12,0.5,0.16,0.76c0.15,0.9,0.68,1.25,1.47,1.28c0.99,0.05,1.98-0.03,2.97-0.05
		c0.19,0,0.39-0.02,0.58-0.02c6.07,0,12.14,0.09,18.21-0.03c4.68-0.09,9.37-0.12,14.05-0.14c3.84-0.02,7.68-0.06,11.52-0.09
		c0.72-0.01,1.41,0.15,2.05,0.49c0.21,0.11,0.44,0.19,0.65,0.28c0.48,0.2,0.93,0.11,1.35-0.17c0.34-0.23,0.68-0.46,1.03-0.68
		c0.49-0.3,1.03-0.44,1.6-0.45c1.08-0.02,2.16-0.06,3.23-0.07c0.79-0.01,1.55-0.12,2.26-0.46c0.52-0.24,1.06-0.17,1.59-0.13
		c0.18,0.01,0.35,0.16,0.51,0.26c0.11,0.07,0.19,0.18,0.28,0.27c0.72,0.69,0.89,0.69,1.59,0.01c0.28-0.27,0.59-0.51,0.9-0.73
		c0.45-0.32,0.96-0.5,1.52-0.46c1,0.08,1.84-0.28,2.66-0.81c2.43-1.56,4.88-3.09,7.33-4.63c0.71-0.44,1.46-0.69,2.32-0.68
		c1.06,0.01,1.98-0.35,2.65-1.23c0.21-0.28,0.43-0.54,0.66-0.8c0.85-1.01,1.91-1.6,3.26-1.56c0.24,0.01,0.48,0.01,0.71,0
		c0.93-0.06,1.78,0.23,2.45,0.84c1.05,0.95,2.24,1.26,3.63,1.2c1.46-0.06,2.93,0.01,4.4,0.06c0.44,0.02,0.89,0.14,1.32,0.27
		c0.71,0.22,1.39,0.26,2.08-0.03c0.65-0.27,1.32-0.35,2.03-0.33c0.73,0.02,1.37,0.25,1.87,0.75c1.29,1.3,2.56,2.63,3.81,3.97
		c0.69,0.74,1.32,1.54,2.02,2.27c0.65,0.68,0.72,1.49,0.64,2.35c-0.04,0.44-0.45,0.78-0.95,0.81c-0.76,0.05-1.5-0.02-2.18-0.43
		c-1.44-0.86-2.9-1.71-4.35-2.56c-0.91-0.54-1.83-1.05-2.73-1.61c-0.74-0.46-1.46-0.53-2.26-0.16c-1.07,0.5-2.19,0.52-3.35,0.42
		c-0.96-0.08-1.94-0.01-2.91,0.02c-0.67,0.02-1.34,0.05-2,0.14c-0.46,0.06-0.94,0.17-1.36,0.38c-1.46,0.71-2.96,0.74-4.47,0.31
		c-0.73-0.21-1.34-0.12-1.96,0.29c-2.38,1.57-4.77,3.12-7.14,4.69c-0.39,0.26-0.84,0.47-1.01,0.96c0.11,0.3,0.36,0.36,0.62,0.36
		c1.9-0.02,3.8-0.04,5.7-0.07c0.04,0,0.09-0.01,0.13-0.01c3.32-0.04,6.65-0.08,9.97-0.11c0.67-0.01,1.25,0.29,1.8,0.64
		c0.52,0.33,1.08,0.55,1.69,0.59c0.95,0.07,1.81-0.14,2.43-0.93c0.47-0.6,1.08-0.83,1.83-0.73c0.13,0.02,0.26,0.03,0.37,0.09
		c0.68,0.37,1.4,0.69,2.03,1.14c1.31,0.92,1.75,0.87,3.11,0.05c0.35-0.21,0.69-0.46,0.99-0.73c1.04-0.97,3.37-1,4.47-0.09
		c0.59,0.49,1.3,0.84,1.97,1.23c0.79,0.46,1.67,0.59,2.57,0.49c2.17-0.23,4.34-0.26,6.52-0.26c0.81,0,1.63-0.11,2.44-0.18
		c0.75-0.06,1.22-0.47,1.47-1.17c0.2-0.57,0.47-1.1,0.95-1.52c0.86-0.76,1.9-0.98,2.99-1.07c1.18-0.09,2.31,0.11,3.44,0.46
		c1.2,0.38,2.04,0.05,2.64-1.06c0.36-0.66,0.64-1.37,0.95-2.06c0.06-0.14,0.12-0.28,0.18-0.42c0.55-1.38,2.34-1.2,2.95-0.25
		c0.69,1.09,1.2,2.24,1.28,3.55c0.03,0.47,0.01,0.95,0,1.43c-0.04,1.7-1.11,2.78-2.82,2.8c-0.68,0.01-1.33,0.09-1.97,0.32
		c-0.81,0.29-1.37,0.8-1.58,1.65c-0.22,0.88-0.74,1.54-1.46,2.07c-1.12,0.81-2.32,1.39-3.7,1.6c-0.98,0.15-1.88-0.06-2.75-0.5
		c-0.25-0.13-0.49-0.27-0.71-0.44c-0.61-0.46-1.29-0.54-2.02-0.5c-1.23,0.07-2.45,0.13-3.68,0.17c-1.38,0.04-2.76,0.06-4.14,0.09
		c-0.45,0.01-0.9,0.06-1.35,0.1c-0.58,0.06-1.05,0.36-1.51,0.69c-0.61,0.43-1.24,0.85-1.87,1.26c-0.31,0.2-0.63,0.37-0.95,0.56
		c-1.32,0.82-2.64,0.84-3.96,0.03c-0.73-0.45-1.47-0.92-2.17-1.42c-1.16-0.83-2.31-0.65-3.45,0c-0.26,0.15-0.51,0.33-0.72,0.54
		c-0.66,0.65-1.48,0.74-2.21,0.35c-1.26-0.68-2.57-0.7-3.9-0.53c-1.31,0.17-1.68,0.73-1.69,2.14c0,0.19,0.05,0.39,0.09,0.57
		c0.12,0.52,0.43,0.9,0.95,1.06c0.88,0.27,1.78,0.32,2.68,0.12c0.54-0.12,0.97-0.45,1.37-0.82c0.73-0.67,1.72-0.65,2.43,0.05
		c0.43,0.42,0.85,0.86,1.29,1.28c0.84,0.8,1.44,0.87,2.44,0.27c0.55-0.33,1.11-0.67,1.62-1.06c1.23-0.93,3.43-0.93,4.62,0.2
		c0.33,0.31,0.71,0.56,1.09,0.81c0.74,0.49,1.6,0.53,2.43,0.52c1.9,0,3.79-0.08,5.69-0.14c1.2-0.04,2.41-0.12,3.61-0.19
		c0.24-0.01,0.47-0.04,0.71-0.08c0.65-0.1,1.19-0.39,1.54-0.96c0.81-1.34,2.05-1.83,3.55-1.85c1.08-0.02,2.11,0.15,3.08,0.6
		c1.23,0.57,2.21,0.26,3.1-0.65c1.21-1.24,2.42-2.46,3.34-3.94c0.09-0.15,0.21-0.27,0.31-0.42c0.55-0.81,1.37-0.85,2.2-0.71
		c0.27,0.05,0.55,0.34,0.71,0.6c0.42,0.69,0.61,1.48,0.66,2.28c0.07,1.07,0.09,2.15,0.1,3.23c0.01,0.92-0.36,1.74-0.95,2.42
		c-0.46,0.53-1.12,0.77-1.81,0.71c-1.29-0.11-2.47,0.27-3.66,0.7c-0.32,0.12-0.65,0.25-0.97,0.36c-1.58,0.53-2.02,1.99-1.71,3.25
		c0.25,1.02,0.5,2.05,0.64,3.09c0.13,1.01,0.05,2.02-0.57,2.91c-0.31,0.44-0.71,0.75-1.18,0.98c-0.7,0.34-1.41,0.65-2.1,1.01
		c-0.75,0.39-1.44,0.91-1.93,1.6c-0.66,0.94-1.55,1.54-2.61,1.93c-0.18,0.07-0.36,0.14-0.55,0.2c-0.98,0.27-1.59,0.86-1.83,1.89
		c-0.11,0.49-0.39,0.95-0.64,1.4c-0.23,0.4-0.6,0.67-1.04,0.83c-0.24,0.09-0.49,0.18-0.73,0.27c-0.74,0.27-1.32,0.71-1.62,1.47
		c-0.23,0.58-0.65,1.01-1.16,1.36c-1.18,0.81-2.47,1.25-3.9,1.08c-0.54-0.07-1.11-0.25-1.59-0.52c-1.08-0.6-2.22-0.78-3.43-0.78
		c-0.56,0-1.13-0.05-1.68-0.01c-0.51,0.04-1.03,0.11-1.51,0.26c-0.66,0.21-1.29,0.49-1.92,0.77c-1.69,0.74-3.19,0.5-4.48-0.85
		c-0.33-0.34-0.63-0.71-0.97-1.04c-0.84-0.84-1.84-1.21-3.01-0.82c-0.87,0.29-1.75,0.19-2.63,0.21c-0.44,0.01-0.76-0.28-1.07-0.55
		c-0.62-0.53-1.31-0.9-2.06-1.2c-0.61-0.24-1.21-0.42-1.89-0.28c-1,0.21-1.97-0.02-2.93-0.27c-2.25-0.58-4.51-1.14-6.77-1.72
		c-1.33-0.35-2.66-0.75-3.99-1.1c-2.15-0.56-4.3-1.11-6.45-1.65c-1.84-0.47-3.67-0.94-5.52-1.38c-0.65-0.15-1.32-0.21-1.97-0.35
		c-0.44-0.09-0.9-0.19-1.28-0.4c-0.87-0.48-1.79-0.73-2.77-0.82c-1.12-0.1-2.08-0.54-2.85-1.37c-0.7-0.75-1.57-0.95-2.54-0.78
		c-0.72,0.13-1.43,0.3-2.14,0.48c-1.49,0.38-3,0.24-4.51,0.23c-0.64-0.01-1.29-0.08-1.93-0.14c-1.31-0.11-2.61-0.24-3.92-0.35
		c-0.64-0.05-1.29-0.06-1.94-0.1c-1.24-0.08-2.49-0.17-3.73-0.25c-0.71-0.04-1.42-0.08-2.13-0.09c-1.1-0.02-2.2,0.04-3.3-0.01
		c-1.22-0.06-2.44-0.18-3.66-0.3c-0.96-0.1-1.92-0.19-2.9-0.08c-0.72,0.08-1.46,0-2.19-0.03c-0.58-0.02-1.17-0.03-1.74-0.11
		c-2.45-0.35-4.91-0.23-7.36-0.27c-0.86-0.01-1.72-0.13-2.57-0.18c-0.82-0.04-1.64-0.05-2.46-0.08c-0.78-0.03-1.55-0.04-2.32-0.09
		c-1-0.06-1.44-0.53-1.42-1.53c0.01-0.64,0.1-1.29,0.09-1.93c-0.02-0.86-0.04-1.72-0.16-2.57c-0.18-1.28-0.43-2.55-0.86-3.77
		c-0.14-0.41-0.19-0.89-0.16-1.33c0.05-0.63,0.35-0.87,0.97-0.92c0.62-0.05,1.25-0.09,1.87-0.09c7.13-0.01,14.26,0.08,21.38-0.05
		c4.3-0.08,8.59-0.1,12.88-0.14c0.77-0.01,1.55-0.07,2.32-0.08c0.28-0.01,0.56,0.04,0.83,0.09c0.6,0.11,1,0.49,1.07,1.07
		c0.08,0.7,0.09,1.42,0.04,2.12c-0.04,0.51-0.4,0.85-0.9,1c-0.29,0.09-0.59,0.16-0.89,0.16c-1.25,0-2.5-0.01-3.75-0.06
		c-1.05-0.05-2.1-0.2-3.15-0.26c-0.74-0.04-1.39,0.28-1.95,0.75c-0.94,0.8-1.57,1.82-1.99,2.98c-0.15,0.42-0.33,0.84-0.52,1.25
		c-0.21,0.45-0.61,0.67-1.08,0.74c-0.42,0.07-0.86,0.1-1.29,0.11c-1.62,0.01-3.24,0.04-4.86,0c-1.55-0.04-3.1-0.16-4.64-0.25
		c-0.13-0.01-0.26,0-0.39,0c-2.44,0-4.88-0.01-7.32,0c-0.56,0-1.12,0.06-1.67,0.11C143.62,157.66,143.34,157.68,143.22,158.01z
		 M232.22,157.07c-0.34,0.03-0.69,0.05-1.03,0.09c-1.28,0.15-2.02,1.18-1.73,2.43c0.14,0.63,0.5,1.06,1.17,1.14
		c0.82,0.1,1.6-0.02,2.25-0.57c0.29-0.25,0.57-0.53,0.86-0.78c0.64-0.56,1.67-0.53,2.28,0.06c0.32,0.32,0.61,0.67,0.92,0.99
		c0.94,0.95,2.09,1.29,3.4,0.56c0.72-0.4,1.44-0.79,2.16-1.17c0.96-0.5,1.95-0.55,2.9,0.01c0.4,0.24,0.78,0.53,1.13,0.86
		c0.87,0.82,1.88,1.25,3.09,1.22c2.11-0.05,4.22-0.07,6.34-0.11c0.87-0.02,1.65-0.29,2.24-0.97c0.18-0.21,0.39-0.41,0.59-0.6
		c0.47-0.42,1.04-0.65,1.65-0.67c1.31-0.04,2.63-0.13,3.89,0.42c0.54,0.24,1.04,0.06,1.39-0.39c0.27-0.35,0.5-0.76,0.68-1.16
		c0.24-0.54,0.04-0.9-0.54-1.06c-0.12-0.03-0.25-0.08-0.38-0.08c-1.14-0.05-2.12-0.52-3.04-1.16c-0.48-0.34-1.02-0.54-1.63-0.53
		c-1.33,0.01-2.67,0-4,0.01c-0.6,0.01-1.2,0.05-1.8,0.1c-1.16,0.1-2.31,0.24-3.47,0.33c-0.62,0.05-1.21,0.22-1.66,0.64
		c-0.93,0.89-2.09,1.36-3.23,1.88c-1.36,0.62-2.68,0.49-3.9-0.42c-0.26-0.19-0.51-0.4-0.77-0.59c-0.48-0.37-0.95-0.74-1.44-1.09
		c-0.56-0.4-1.16-0.55-1.81-0.18c-0.52,0.3-1.1,0.52-1.58,0.87c-0.82,0.6-1.68,0.61-2.58,0.32
		C233.8,157.21,233.02,157.08,232.22,157.07z M154.46,141.85c3.66-0.06,8.08,0.03,12.51-0.14c4.05-0.15,8.11-0.1,12.17-0.12
		c2.48-0.01,4.97,0,7.45-0.01c0.77,0,1.51,0.12,2.21,0.41c1.17,0.49,2.25,0.44,3.32-0.28c0.71-0.48,1.52-0.68,2.39-0.66
		c0.82,0.02,1.64-0.05,2.45-0.08c0.11,0,0.24,0.01,0.31-0.05c0.12-0.1,0.27-0.24,0.27-0.37c0-0.13-0.13-0.32-0.25-0.38
		c-0.14-0.08-0.33-0.05-0.51-0.06c-0.77-0.04-1.55-0.05-2.32-0.11c-0.49-0.04-0.98-0.16-1.39-0.48c-0.32-0.25-0.65-0.5-0.98-0.74
		c-0.73-0.54-1.31-0.57-2.09-0.1c-0.13,0.08-0.26,0.15-0.38,0.25c-0.73,0.62-1.6,0.82-2.53,0.83c-3.26,0.04-6.52,0.07-9.78,0.1
		c-3.82,0.03-7.64,0.05-11.46,0.08c-3.32,0.03-6.65,0.06-9.97,0.09c-2.03,0.02-4.05,0.07-6.08,0.09c-2.53,0.02-5.05,0-7.58,0.01
		c-0.71,0-1.42,0.03-2.13,0.09c-0.27,0.02-0.55,0.13-0.78,0.27c-0.14,0.08-0.25,0.29-0.28,0.46c-0.09,0.61,0.25,0.97,0.95,1.01
		c0.51,0.03,1.02,0.02,1.54,0.01c1.4-0.03,2.8-0.09,4.2-0.09C148.38,141.84,151.04,141.85,154.46,141.85z M203.1,153.56
		c0-0.02,0-0.05,0-0.07c-0.17,0-0.35-0.02-0.52,0.01c-0.25,0.04-0.52,0.08-0.74,0.19c-0.5,0.26-0.57,0.73-0.13,1.09
		c0.22,0.18,0.52,0.31,0.8,0.38c0.86,0.2,1.73,0.36,2.6,0.53c2.75,0.53,5.5,1.05,8.25,1.58c3.26,0.63,6.51,1.27,9.77,1.89
		c0.87,0.17,1.74,0.31,2.61,0.43c0.83,0.11,1.31-0.23,1.51-1.05c0.08-0.31,0.12-0.64,0.16-0.96c0.06-0.47,0.09-0.94,0.15-1.41
		c0.12-0.99-0.3-1.57-1.27-1.74c-0.27-0.05-0.56-0.04-0.84-0.06c-0.56-0.03-1.12-0.04-1.68-0.08c-1.2-0.09-2.4-0.21-3.61-0.28
		c-1.25-0.06-2.5-0.05-3.75-0.1c-2-0.08-4-0.2-6-0.25C207.97,153.61,205.53,153.6,203.1,153.56z M230.06,165.05
		c-0.76-0.03-1.26,0.13-1.57,0.65c-0.32,0.53-0.44,1.12-0.34,1.74c0.1,0.6,0.44,0.96,1.02,1.12c0.6,0.16,1.2,0.12,1.79-0.05
		c0.87-0.24,1.63-0.12,2.39,0.38c1.34,0.88,2.74,0.94,4.16,0.16c0.34-0.19,0.69-0.36,1.05-0.51c0.66-0.28,1.26-0.23,1.75,0.36
		c0.21,0.25,0.42,0.49,0.62,0.75c0.33,0.45,0.74,0.79,1.28,0.94c0.71,0.2,1.45,0.27,2.18,0.14c1.13-0.2,2.27-0.33,3.41-0.24
		c0.91,0.07,1.61-0.22,2.12-0.95c0.6-0.86,1.46-1.18,2.46-1.15c0.92,0.02,1.85,0.07,2.77,0.16c0.87,0.08,1.52-0.24,1.98-0.96
		c0.37-0.57,0.16-1.11-0.49-1.31c-0.18-0.06-0.38-0.08-0.57-0.07c-2.11,0.05-4.22,0.09-6.34,0.17c-0.67,0.02-1.33,0.19-1.86,0.65
		c-1.02,0.89-2.28,1.28-3.5,1.76c-0.25,0.1-0.56,0.16-0.82,0.11c-1.01-0.19-1.94-0.56-2.72-1.26c-0.45-0.4-0.85-0.85-1.29-1.25
		c-0.93-0.85-2.31-1.1-3.44-0.3c-0.21,0.15-0.43,0.29-0.66,0.41c-1.21,0.66-2.22,0.56-3.13-0.45
		C231.64,165.29,230.79,165.14,230.06,165.05z M210.44,143.69C210.44,143.69,210.44,143.7,210.44,143.69c-2.07,0-4.14,0-6.22,0.01
		c-0.26,0-0.52,0.03-0.76,0.1c-0.5,0.15-0.68,0.35-0.62,0.62c0.06,0.27,0.29,0.37,0.82,0.33c0.6-0.05,1.2-0.14,1.8-0.17
		c1.88-0.09,3.75-0.01,5.6,0.29c2.94,0.48,5.78,1.38,8.56,2.42c0.77,0.29,1.52,0.62,2.26,0.96c0.91,0.41,1.87,0.47,2.84,0.52
		c0.73,0.03,1.47,0,2.19-0.08c0.62-0.07,1.02-0.47,1.09-1.11c0.09-0.83,0.16-1.67,0.19-2.51c0.02-0.75-0.38-1.21-1.12-1.36
		c-0.34-0.07-0.68-0.09-1.03-0.09c-3.13,0.02-6.25,0.05-9.38,0.07C214.58,143.7,212.51,143.69,210.44,143.69z M203.16,160.77
		c-0.17,0.92-0.14,1.02,0.63,1.35c0.37,0.16,0.76,0.29,1.16,0.4c1.5,0.39,3.01,0.75,4.51,1.13c4.51,1.16,9.02,2.31,13.52,3.5
		c0.85,0.23,1.7,0.27,2.56,0.25c0.62-0.01,0.88-0.3,0.91-0.93c0-0.13,0-0.26,0-0.39c0-0.97-0.24-1.28-1.18-1.47
		c-1.54-0.32-3.08-0.63-4.62-0.93c-2.66-0.51-5.33-1.01-7.99-1.53c-1.99-0.39-3.96-0.81-5.95-1.19
		C205.55,160.74,204.38,160.54,203.16,160.77z M214.38,148.25c0,0.03,0,0.05,0,0.08c0.47,0,0.95,0,1.42,0
		c0.28,0,0.56,0.01,0.84-0.02c0.1-0.01,0.25-0.12,0.27-0.21c0.02-0.09-0.07-0.24-0.16-0.31c-0.11-0.09-0.26-0.14-0.41-0.19
		c-1.05-0.31-2.1-0.66-3.16-0.92c-1.52-0.38-3.06-0.73-4.63-0.79c-1.63-0.07-3.27-0.07-4.89,0.2c-0.66,0.11-1.33,0.22-1.85,0.68
		c-0.17,0.15-0.35,0.43-0.34,0.64c0.01,0.34,0.35,0.46,0.64,0.55c0.1,0.03,0.21,0.03,0.32,0.03c2.61-0.04,5.2,0.08,7.8,0.25
		C211.61,148.32,213,148.25,214.38,148.25z"/>
	<path d="M98.07,155.04c0-1.96,0.05-3.93-0.01-5.89c-0.1-3.32-0.17-6.64-0.17-9.96c0-3.15-0.08-6.3-0.12-9.45
		c0-0.41,0-0.82,0.06-1.23c0.1-0.74,0.44-1.04,1.17-0.98c0.4,0.03,0.8,0.16,1.17,0.32c1.81,0.81,3.32,2.03,4.48,3.63
		c0.83,1.15,1.57,2.37,2.31,3.59c0.92,1.51,1.71,3.1,2.7,4.57c1.52,2.25,3.6,3.87,6.07,5.01c2.42,1.12,4.98,1.82,7.55,2.5
		c2.83,0.74,5.7,1.2,8.59,1.52c0.85,0.09,1.72,0.15,2.58,0.17c0.94,0.03,1.63,0.44,1.97,1.31c0.26,0.66,0.46,1.35,0.59,2.04
		c0.39,2.13,0.51,4.28,0.2,6.44c-0.08,0.55-0.1,1.12-0.18,1.67c-0.16,1.04-0.75,1.56-1.79,1.6c-1.72,0.06-3.45,0.08-5.17,0.16
		c-1.14,0.06-2.28,0.19-3.41,0.29c-0.62,0.05-1.24,0.13-1.86,0.15c-1.84,0.05-3.65,0.35-5.45,0.65c-3,0.5-5.98,1.1-8.98,1.56
		c-1.89,0.29-3.81,0.43-5.71,0.57c-1.4,0.1-2.8,0.08-4.2,0.11c-0.23,0-0.47-0.04-0.7-0.07c-1.07-0.12-1.54-0.79-1.55-1.87
		c-0.05-2.8-0.09-5.61-0.13-8.41C98.04,155.04,98.06,155.04,98.07,155.04z"/>
	<path d="M59.32,156.37c-0.35,0-0.69,0-1.04,0c-3.07,0-6.14-0.1-9.2,0.02c-4.23,0.17-8.46,0.14-12.68,0.17
		c-1.36,0.01-2.72,0.1-4.08,0.13c-0.56,0.01-1.12-0.02-1.68-0.07c-0.77-0.06-1.47-0.35-2.11-0.77c-1.39-0.92-2.76-1.85-4.13-2.79
		c-0.48-0.33-0.94-0.69-1.4-1.04c-0.5-0.39-0.85-0.91-0.87-1.53c-0.05-1.14-0.06-2.29,0.01-3.42c0.05-0.76,0.57-1.18,1.34-1.25
		c0.52-0.05,1.03-0.08,1.55-0.08c3.2-0.01,6.39-0.01,9.59-0.03c0.77-0.01,1.5,0.13,2.19,0.47c2.6,1.29,5.38,1.97,8.25,2.3
		c0.49,0.06,0.99,0.07,1.49,0.09c1.06,0.04,2.11,0.11,3.17,0.11c1.45-0.01,2.89-0.04,4.34-0.14c2.95-0.2,5.8-0.85,8.52-2.02
		c0.29-0.12,0.62-0.16,0.94-0.17c0.69-0.02,0.92,0.18,1.04,0.87c0.06,0.34,0.05,0.69,0.08,1.03c0.03,0.36,0.03,0.73,0.09,1.09
		c0.14,0.82,0.49,1.18,1.3,1.28c0.51,0.07,1.03,0.08,1.55,0.08c1.08-0.01,2.16,0,3.24-0.08c1.17-0.08,1.68-0.62,1.69-1.78
		c0.01-2.4-0.04-4.79-0.06-7.19c0-0.41,0-0.82-0.01-1.23c-0.02-3.54-0.04-7.08-0.05-10.63c0-0.39,0.02-0.78,0.05-1.16
		c0.08-0.83,0.45-1.29,1.29-1.36c0.94-0.08,1.9-0.08,2.84,0.01c0.9,0.08,1.31,0.61,1.37,1.52c0.03,0.43,0.02,0.86,0.02,1.3
		c0.01,2.57,0,5.14,0.02,7.71c0.02,3.91-0.03,7.82,0.11,11.72c0.17,4.66,0.08,9.33,0.12,13.99c0.01,1.08-0.46,1.61-1.52,1.7
		c-0.73,0.06-1.47,0.05-2.19-0.01c-1.17-0.09-1.66-0.61-1.7-1.79c-0.05-1.51-0.04-3.02-0.09-4.53c-0.02-0.49-0.09-0.98-0.2-1.46
		c-0.13-0.58-0.55-0.92-1.13-1.02c-0.3-0.05-0.6-0.09-0.9-0.09c-3.48-0.01-6.96,0-10.43,0c-0.24,0-0.47,0-0.71,0
		C59.32,156.33,59.32,156.35,59.32,156.37z"/>
	<path d="M64.57,136.59c0,1.34,0,2.68,0,4.02c0,1.12-0.31,2.13-1.09,2.95c-0.55,0.59-1.24,0.99-1.93,1.39
		c-1.82,1.03-3.83,1.41-5.84,1.79c-0.95,0.18-1.92,0.19-2.89,0.28c-0.34,0.03-0.69,0.05-1.02,0.12c-1.27,0.28-2.53,0.11-3.79-0.03
		c-0.58-0.06-1.15-0.15-1.73-0.17c-1.59-0.04-3.12-0.39-4.63-0.81c-1.25-0.35-2.45-0.82-3.55-1.53c-0.72-0.46-1.38-0.99-1.71-1.8
		c-0.17-0.43-0.32-0.91-0.33-1.37c-0.06-2.59-0.08-5.17-0.11-7.76c-0.01-0.5,0.03-1-0.01-1.49c-0.12-1.71,0.73-2.89,2.1-3.73
		c1.54-0.95,3.24-1.49,4.99-1.92c1.53-0.38,3.11-0.4,4.66-0.67c1.13-0.2,2.27-0.24,3.41-0.18c1.07,0.05,2.14,0.15,3.21,0.27
		c1.67,0.19,3.33,0.45,4.93,0.96c1.53,0.49,3,1.1,4.15,2.28c0.64,0.66,1.04,1.43,1.07,2.35c0.06,1.68,0.1,3.36,0.15,5.04
		C64.6,136.59,64.58,136.59,64.57,136.59z M49.64,130.57c0-0.02,0-0.05,0-0.07c0.26,0,0.52,0,0.78,0c1.46-0.02,2.93-0.05,4.39-0.08
		c0.19,0,0.39-0.04,0.56-0.12c0.36-0.17,0.38-0.57,0.04-0.75c-0.28-0.14-0.6-0.23-0.92-0.28c-0.61-0.1-1.24-0.15-1.86-0.24
		c-1.45-0.23-2.91-0.29-4.38-0.12c-1.11,0.13-2.22,0.29-3.32,0.47c-0.29,0.05-0.59,0.15-0.84,0.3c-0.13,0.08-0.23,0.3-0.25,0.47
		c-0.03,0.23,0.17,0.33,0.38,0.35c0.28,0.03,0.56,0.07,0.83,0.07C46.59,130.57,48.11,130.57,49.64,130.57z M43.56,131.67
		c0.3,0.22,0.46,0.41,0.65,0.47c0.41,0.13,0.83,0.22,1.25,0.29c1,0.15,2,0.34,3,0.41c2.03,0.15,4.04-0.14,6.03-0.52
		c0.35-0.07,0.7-0.21,1.03-0.36c0.1-0.05,0.21-0.25,0.19-0.36c-0.01-0.11-0.17-0.26-0.28-0.29c-0.29-0.07-0.59-0.12-0.89-0.12
		c-1.25,0.02-2.5,0.07-3.75,0.08c-1.7,0.02-3.41,0-5.12,0.01c-0.45,0-0.91,0.03-1.35,0.09C44.12,131.4,43.92,131.53,43.56,131.67z"
		/>
	<path d="M87.23,159.29c0-1.25,0.01-2.51,0-3.76c-0.02-2.07-0.07-4.14-0.09-6.21c-0.01-1.2,0.01-2.41,0-3.61
		c-0.03-4.01-0.06-8.03-0.09-12.04c-0.01-1.53-0.05-3.06-0.07-4.59c0-0.15-0.01-0.3,0-0.45c0.08-0.99,0.64-1.52,1.64-1.54
		c2.07-0.03,4.14-0.07,6.21-0.07c1.85,0,2.07,0.53,2.18,2.15c0.02,0.32,0,0.65,0,0.97c0.03,5.2,0.06,10.4,0.1,15.61
		c0.03,3.65,0.06,7.3,0.09,10.94c0.02,2.09,0.06,4.19,0.07,6.28c0,0.36-0.06,0.73-0.14,1.08c-0.12,0.5-0.46,0.83-0.96,0.95
		c-0.35,0.09-0.72,0.14-1.08,0.15c-1.9,0.01-3.8,0.01-5.7,0.01c-0.04,0-0.09,0-0.13,0c-1.22-0.09-1.92-0.39-1.99-1.77
		c-0.01-0.22-0.03-0.43-0.03-0.65C87.23,161.58,87.23,160.43,87.23,159.29z"/>
	<path d="M44.42,157.78c1.75,0,3.5,0.01,5.25,0c3.67-0.02,7.34-0.05,11.01-0.09c0.69-0.01,1.38-0.07,2.07-0.06
		c0.32,0,0.65,0.06,0.95,0.15c0.44,0.13,0.73,0.46,0.87,0.89c0.07,0.2,0.14,0.42,0.14,0.63c-0.02,1.42,0.01,2.85-0.11,4.26
		c-0.09,1.04-0.83,1.76-1.64,2.38c-1.22,0.94-2.64,1.44-4.09,1.9c-1.71,0.55-3.48,0.88-5.25,1.02c-1.82,0.14-3.66,0.04-5.49,0.05
		c-1.41,0.01-2.79-0.24-4.16-0.48c-2.09-0.37-4.09-1.01-5.91-2.19c-1.31-0.85-1.87-2.03-1.86-3.54c0-0.89-0.01-1.77,0.01-2.66
		c0-0.3,0.04-0.6,0.09-0.9c0.16-0.85,0.53-1.22,1.39-1.26c1.42-0.07,2.84-0.08,4.27-0.11C42.78,157.77,43.6,157.78,44.42,157.78
		C44.42,157.78,44.42,157.78,44.42,157.78z"/>
	<path d="M82.3,145.01c0,2.74,0,5.48,0,8.23c0,1.36,0.01,2.72,0.03,4.08c0.02,1.64,0.06,3.28,0.08,4.92c0,0.52-0.03,1.03-0.09,1.55
		c-0.09,0.81-0.62,1.27-1.38,1.26c-0.74-0.01-1.23-0.46-1.32-1.24c-0.06-0.51-0.1-1.03-0.1-1.55c-0.01-2.96,0.01-5.92-0.01-8.88
		c-0.02-3.86-0.05-7.73-0.08-11.59c-0.03-3.43-0.05-6.86-0.09-10.3c-0.01-0.82-0.07-1.64-0.09-2.46c-0.01-0.21,0.01-0.43,0.06-0.64
		c0.17-0.74,0.53-1.04,1.26-1.05c0.83-0.01,1.21,0.26,1.4,1.03c0.05,0.19,0.08,0.38,0.09,0.57c0.05,1.9,0.12,3.8,0.13,5.7
		c0.02,2.33-0.01,4.67-0.02,7c0,1.12,0,2.25,0,3.37C82.22,145.01,82.26,145.01,82.3,145.01z"/>
	<path d="M86.18,142.31c0,0.86-0.01,1.73,0,2.59c0.04,6.02,0.09,12.05,0.13,18.07c0,0.3-0.02,0.61-0.06,0.9
		c-0.1,0.69-0.6,1.13-1.28,1.14c-0.65,0.01-1.16-0.39-1.3-1.05c-0.08-0.38-0.12-0.77-0.13-1.16c-0.03-3.07-0.06-6.13-0.08-9.2
		c-0.04-5.87-0.06-11.75-0.1-17.62c-0.01-2.24-0.07-4.49-0.08-6.73c0-0.36,0.04-0.74,0.13-1.09c0.15-0.6,0.64-0.97,1.22-0.99
		c0.58-0.01,1.05,0.34,1.24,0.95c0.06,0.18,0.1,0.38,0.11,0.57c0.04,0.75,0.1,1.51,0.1,2.26c0.01,3.52,0,7.04,0,10.56
		c0,0.26,0,0.52,0,0.78C86.12,142.31,86.15,142.31,86.18,142.31z"/>
	<path d="M71.3,141.53c0,1.94,0,3.88,0,5.82c0,0.3-0.03,0.61-0.11,0.89c-0.16,0.56-0.55,0.97-1.13,1.02
		c-0.81,0.07-1.63,0.07-2.44,0.01c-0.68-0.05-1.08-0.51-1.18-1.18c-0.07-0.47-0.11-0.94-0.12-1.41c-0.02-0.93,0-1.85-0.01-2.78
		c-0.02-1.77-0.03-3.53-0.08-5.3c-0.03-1.08,0.36-1.91,1.26-2.53c0.71-0.49,1.35-1.07,1.88-1.76c0.14-0.19,0.33-0.34,0.5-0.51
		c0.27-0.27,0.61-0.35,0.95-0.21c0.31,0.13,0.38,0.45,0.39,0.76c0.03,1.23,0.08,2.45,0.09,3.68C71.31,139.2,71.3,140.37,71.3,141.53
		z"/>
	<path d="M35.32,160.68c0,0.37,0.02,0.74,0,1.1c-0.07,0.9-0.43,1.19-1.34,1.19c-0.65,0-1.22-0.25-1.79-0.5
		c-2.2-0.95-4.29-2.09-6.35-3.33c-1.42-0.85-2.94-1.53-4.4-2.32c-0.49-0.26-0.95-0.59-1.36-0.96c-0.54-0.49-0.68-1.65-0.35-2.29
		c0.24-0.47,0.66-0.65,1.16-0.69c0.8-0.07,1.48,0.29,2.11,0.7c1.48,0.97,2.94,1.96,4.39,2.97c1.14,0.79,2.36,1.3,3.79,1.25
		c0.88-0.03,1.76,0.05,2.64,0.09c0.81,0.04,1.31,0.5,1.42,1.32c0.07,0.49,0.08,0.99,0.12,1.48
		C35.34,160.68,35.33,160.68,35.32,160.68z"/>
	<path d="M174.64,157.52c-2.14,0-4.27,0.01-6.41-0.01c-0.41,0-0.82-0.05-1.22-0.13c-0.56-0.12-0.84-0.5-0.86-1.07
		c-0.05-1.52,1.46-3.45,2.95-3.66c0.74-0.11,1.51-0.05,2.26-0.03c1.34,0.04,2.67,0.12,4,0.18c0.43,0.02,0.86,0.03,1.29,0.07
		c0.81,0.08,1.29,0.47,1.4,1.27c0.09,0.63,0.09,1.3,0,1.93c-0.11,0.83-0.53,1.18-1.37,1.31c-0.17,0.03-0.34,0.03-0.52,0.03
		c-0.52,0-1.04,0-1.55,0C174.64,157.46,174.64,157.49,174.64,157.52z"/>
	<path d="M71.38,160.75c0,0.45,0.01,0.91,0,1.36c-0.03,1.03-0.5,1.41-1.49,1.21c-0.7-0.14-1.39-0.29-2.08-0.45
		c-0.84-0.2-1.25-0.63-1.29-1.47c-0.04-0.82-0.05-1.64,0.01-2.45c0.05-0.81,0.59-1.29,1.41-1.32c0.67-0.03,1.34-0.03,2.01,0
		c0.76,0.03,1.18,0.39,1.37,1.13c0.03,0.1,0.07,0.21,0.07,0.32C71.37,159.63,71.37,160.19,71.38,160.75
		C71.37,160.75,71.38,160.75,71.38,160.75z"/>
	<path d="M180.12,149.89c0.04,2.3,0.08,4.61,0.11,6.91c0,0.3-0.04,0.6-0.08,0.9c-0.04,0.3-0.25,0.44-0.54,0.44
		c-0.34,0.01-0.5-0.11-0.58-0.46c-0.05-0.21-0.07-0.42-0.1-0.64c-0.01-0.04,0-0.09,0-0.13c-0.03-2.61-0.05-5.21-0.07-7.82
		c0-0.28,0.04-0.56,0.08-0.83c0.04-0.27,0.21-0.43,0.48-0.44c0.29-0.01,0.51,0.09,0.58,0.4c0.04,0.19,0.08,0.38,0.09,0.57
		c0.01,0.37,0,0.73,0,1.1C180.08,149.89,180.1,149.89,180.12,149.89z"/>
	<path d="M182,155.47c0,0.37,0,0.73,0,1.1c0,0.11,0.01,0.22,0,0.32c-0.05,0.62-0.28,0.9-0.71,0.88c-0.43-0.03-0.58-0.26-0.59-0.9
		c-0.06-2.54-0.13-5.07-0.18-7.61c-0.01-0.3,0.05-0.6,0.1-0.89c0.07-0.35,0.36-0.38,0.65-0.38c0.31,0,0.48,0.15,0.53,0.45
		c0.01,0.08,0.02,0.17,0.02,0.26c0.03,1.29,0.05,2.58,0.09,3.87c0.03,0.97,0.08,1.93,0.12,2.9C182.01,155.47,182,155.47,182,155.47z
		"/>
	<path class="st0" d="M232.22,157.07c0.81,0.02,1.58,0.14,2.35,0.39c0.89,0.29,1.76,0.28,2.58-0.32c0.48-0.35,1.06-0.58,1.58-0.87
		c0.65-0.37,1.25-0.22,1.81,0.18c0.49,0.35,0.96,0.73,1.44,1.09c0.26,0.2,0.51,0.4,0.77,0.59c1.21,0.92,2.54,1.04,3.9,0.42
		c1.13-0.52,2.29-0.99,3.23-1.88c0.45-0.42,1.03-0.59,1.66-0.64c1.16-0.09,2.31-0.23,3.47-0.33c0.6-0.05,1.2-0.1,1.8-0.1
		c1.33-0.02,2.67,0,4-0.01c0.61,0,1.15,0.2,1.63,0.53c0.92,0.64,1.89,1.11,3.04,1.16c0.13,0.01,0.25,0.05,0.38,0.08
		c0.58,0.16,0.79,0.51,0.54,1.06c-0.18,0.41-0.41,0.81-0.68,1.16c-0.35,0.45-0.84,0.63-1.39,0.39c-1.26-0.56-2.58-0.46-3.89-0.42
		c-0.61,0.02-1.18,0.25-1.65,0.67c-0.21,0.19-0.41,0.39-0.59,0.6c-0.6,0.68-1.37,0.96-2.24,0.97c-2.11,0.05-4.23,0.06-6.34,0.11
		c-1.21,0.03-2.22-0.39-3.09-1.22c-0.34-0.32-0.72-0.62-1.13-0.86c-0.95-0.57-1.94-0.51-2.9-0.01c-0.73,0.38-1.45,0.77-2.16,1.17
		c-1.32,0.73-2.46,0.39-3.4-0.56c-0.32-0.32-0.6-0.68-0.92-0.99c-0.61-0.6-1.64-0.62-2.28-0.06c-0.29,0.25-0.56,0.53-0.86,0.78
		c-0.65,0.56-1.43,0.67-2.25,0.57c-0.66-0.08-1.03-0.51-1.17-1.14c-0.28-1.25,0.46-2.29,1.73-2.43
		C231.53,157.12,231.88,157.1,232.22,157.07z"/>
	<path class="st0" d="M154.46,141.85c-3.42,0-6.08-0.01-8.74,0c-1.4,0.01-2.8,0.07-4.2,0.09c-0.51,0.01-1.03,0.03-1.54-0.01
		c-0.71-0.04-1.04-0.4-0.95-1.01c0.02-0.17,0.14-0.38,0.28-0.46c0.23-0.14,0.52-0.24,0.78-0.27c0.71-0.06,1.42-0.09,2.13-0.09
		c2.53-0.01,5.05,0.01,7.58-0.01c2.03-0.01,4.05-0.06,6.08-0.09c3.32-0.04,6.65-0.07,9.97-0.09c3.82-0.03,7.64-0.05,11.46-0.08
		c3.26-0.03,6.52-0.06,9.78-0.1c0.92-0.01,1.8-0.2,2.53-0.83c0.11-0.1,0.25-0.17,0.38-0.25c0.78-0.47,1.36-0.44,2.09,0.1
		c0.33,0.24,0.65,0.49,0.98,0.74c0.41,0.32,0.89,0.44,1.39,0.48c0.77,0.06,1.55,0.07,2.32,0.11c0.17,0.01,0.37-0.02,0.51,0.06
		c0.12,0.07,0.25,0.25,0.25,0.38c0,0.13-0.15,0.27-0.27,0.37c-0.07,0.06-0.21,0.05-0.31,0.05c-0.82,0.03-1.64,0.09-2.45,0.08
		c-0.87-0.02-1.68,0.18-2.39,0.66c-1.07,0.71-2.15,0.77-3.32,0.28c-0.7-0.29-1.44-0.41-2.21-0.41c-2.48,0.01-4.97-0.01-7.45,0.01
		c-4.06,0.02-8.12-0.03-12.17,0.12C162.54,141.89,158.12,141.8,154.46,141.85z"/>
	<path class="st0" d="M203.1,153.56c2.44,0.03,4.87,0.04,7.31,0.11c2,0.05,4,0.18,6,0.25c1.25,0.05,2.5,0.04,3.75,0.1
		c1.2,0.06,2.4,0.19,3.61,0.28c0.56,0.04,1.12,0.05,1.68,0.08c0.28,0.01,0.56,0.01,0.84,0.06c0.98,0.17,1.4,0.76,1.27,1.74
		c-0.06,0.47-0.09,0.94-0.15,1.41c-0.04,0.32-0.08,0.64-0.16,0.96c-0.2,0.82-0.68,1.17-1.51,1.05c-0.87-0.12-1.75-0.26-2.61-0.43
		c-3.26-0.62-6.51-1.27-9.77-1.89c-2.75-0.53-5.5-1.05-8.25-1.58c-0.87-0.17-1.74-0.33-2.6-0.53c-0.28-0.07-0.58-0.2-0.8-0.38
		c-0.44-0.35-0.37-0.83,0.13-1.09c0.22-0.11,0.49-0.15,0.74-0.19c0.17-0.03,0.34-0.01,0.52-0.01
		C203.1,153.52,203.1,153.54,203.1,153.56z"/>
	<path class="st0" d="M230.06,165.05c0.73,0.09,1.58,0.24,2.26,0.99c0.91,1.01,1.92,1.11,3.13,0.45c0.23-0.12,0.44-0.27,0.66-0.41
		c1.13-0.8,2.51-0.55,3.44,0.3c0.44,0.41,0.85,0.85,1.29,1.25c0.77,0.7,1.71,1.07,2.72,1.26c0.26,0.05,0.57-0.01,0.82-0.11
		c1.22-0.48,2.49-0.87,3.5-1.76c0.53-0.46,1.19-0.63,1.86-0.65c2.11-0.08,4.22-0.12,6.34-0.17c0.19,0,0.39,0.02,0.57,0.07
		c0.65,0.2,0.86,0.74,0.49,1.31c-0.46,0.71-1.11,1.04-1.98,0.96c-0.92-0.08-1.85-0.13-2.77-0.16c-1-0.03-1.86,0.29-2.46,1.15
		c-0.51,0.73-1.21,1.02-2.12,0.95c-1.14-0.09-2.28,0.04-3.41,0.24c-0.73,0.13-1.47,0.06-2.18-0.14c-0.54-0.15-0.95-0.5-1.28-0.94
		c-0.19-0.26-0.41-0.5-0.62-0.75c-0.49-0.59-1.09-0.64-1.75-0.36c-0.36,0.15-0.71,0.33-1.05,0.51c-1.42,0.78-2.82,0.71-4.16-0.16
		c-0.76-0.5-1.52-0.63-2.39-0.38c-0.58,0.16-1.18,0.21-1.79,0.05c-0.58-0.16-0.92-0.52-1.02-1.12c-0.11-0.62,0.02-1.21,0.34-1.74
		C228.8,165.18,229.3,165.02,230.06,165.05z"/>
	<path class="st0" d="M210.44,143.69c2.07,0,4.14,0.01,6.22,0c3.13-0.02,6.25-0.05,9.38-0.07c0.34,0,0.69,0.02,1.03,0.09
		c0.74,0.14,1.14,0.61,1.12,1.36c-0.02,0.84-0.1,1.67-0.19,2.51c-0.07,0.63-0.47,1.04-1.09,1.11c-0.72,0.08-1.46,0.11-2.19,0.08
		c-0.96-0.04-1.93-0.1-2.84-0.52c-0.74-0.34-1.5-0.67-2.26-0.96c-2.79-1.05-5.62-1.95-8.56-2.42c-1.85-0.3-3.73-0.38-5.6-0.29
		c-0.6,0.03-1.2,0.12-1.8,0.17c-0.53,0.04-0.75-0.06-0.82-0.33c-0.06-0.27,0.12-0.47,0.62-0.62c0.24-0.07,0.51-0.1,0.76-0.1
		C206.29,143.69,208.36,143.7,210.44,143.69C210.44,143.7,210.44,143.69,210.44,143.69z"/>
	<path class="st0" d="M203.16,160.77c1.22-0.24,2.39-0.03,3.55,0.19c1.99,0.39,3.96,0.81,5.95,1.19c2.66,0.52,5.33,1.01,7.99,1.53
		c1.54,0.3,3.08,0.61,4.62,0.93c0.94,0.19,1.18,0.5,1.18,1.47c0,0.13,0,0.26,0,0.39c-0.02,0.63-0.29,0.91-0.91,0.93
		c-0.86,0.02-1.71-0.02-2.56-0.25c-4.5-1.19-9.01-2.34-13.52-3.5c-1.5-0.39-3.01-0.74-4.51-1.13c-0.39-0.1-0.78-0.24-1.16-0.4
		C203.03,161.79,202.99,161.7,203.16,160.77z"/>
	<path class="st0" d="M214.38,148.25c-1.38,0-2.76,0.07-4.13-0.02c-2.6-0.17-5.2-0.29-7.8-0.25c-0.11,0-0.22,0-0.32-0.03
		c-0.29-0.09-0.63-0.21-0.64-0.55c-0.01-0.21,0.17-0.48,0.34-0.64c0.52-0.46,1.19-0.57,1.85-0.68c1.62-0.27,3.26-0.27,4.89-0.2
		c1.57,0.06,3.11,0.41,4.63,0.79c1.06,0.27,2.11,0.61,3.16,0.92c0.14,0.04,0.29,0.1,0.41,0.19c0.09,0.07,0.18,0.22,0.16,0.31
		c-0.02,0.09-0.17,0.2-0.27,0.21c-0.28,0.03-0.56,0.02-0.84,0.02c-0.47,0-0.95,0-1.42,0C214.38,148.3,214.38,148.28,214.38,148.25z"
		/>
	<path class="st0" d="M49.64,130.57c-1.53,0-3.06,0-4.59,0c-0.28,0-0.56-0.04-0.83-0.07c-0.21-0.02-0.41-0.11-0.38-0.35
		c0.02-0.17,0.11-0.39,0.25-0.47c0.25-0.15,0.55-0.25,0.84-0.3c1.1-0.17,2.21-0.34,3.32-0.47c1.46-0.17,2.92-0.1,4.38,0.12
		c0.62,0.1,1.24,0.14,1.86,0.24c0.31,0.05,0.64,0.14,0.92,0.28c0.35,0.17,0.32,0.58-0.04,0.75c-0.17,0.08-0.37,0.11-0.56,0.12
		c-1.46,0.03-2.93,0.06-4.39,0.08c-0.26,0-0.52,0-0.78,0C49.64,130.52,49.64,130.55,49.64,130.57z"/>
	<path class="st0" d="M43.56,131.67c0.36-0.14,0.56-0.27,0.77-0.3c0.45-0.06,0.9-0.08,1.35-0.09c1.71-0.01,3.41,0.01,5.12-0.01
		c1.25-0.01,2.5-0.07,3.75-0.08c0.3,0,0.6,0.05,0.89,0.12c0.12,0.03,0.27,0.18,0.28,0.29c0.01,0.11-0.09,0.31-0.19,0.36
		c-0.33,0.15-0.68,0.29-1.03,0.36c-1.99,0.39-4,0.67-6.03,0.52c-1.01-0.07-2-0.26-3-0.41c-0.42-0.07-0.85-0.16-1.25-0.29
		C44.02,132.08,43.86,131.89,43.56,131.67z"/>
</g>
</svg>
